<svg id="visual" viewBox="0 0 900 600" width="900" height="600" xmlns="http://www.w3.org/2000/svg" xmlns:xlink="http://www.w3.org/1999/xlink" version="1.1"><rect x="0" y="0" width="900" height="600" fill="#1e1e2e"></rect><defs><linearGradient id="grad1_0" x1="33.3%" y1="100%" x2="100%" y2="0%"><stop offset="20%" stop-color="#1e1e2e" stop-opacity="1"></stop><stop offset="80%" stop-color="#1e1e2e" stop-opacity="1"></stop></linearGradient></defs><defs><linearGradient id="grad2_0" x1="0%" y1="100%" x2="66.7%" y2="0%"><stop offset="20%" stop-color="#1e1e2e" stop-opacity="1"></stop><stop offset="80%" stop-color="#1e1e2e" stop-opacity="1"></stop></linearGradient></defs><g transform="translate(900, 600)"><path d="M-243.4 0C-224.5 -20.1 -205.6 -40.3 -200.7 -65.2C-195.8 -90.1 -204.8 -119.9 -196.9 -143.1C-189 -166.2 -164.1 -182.9 -139.9 -192.5C-115.7 -202.2 -92.1 -204.8 -68.9 -212.1C-45.7 -219.4 -22.9 -231.4 0 -243.4L0 0Z" fill="#cba6f7"></path></g><g transform="translate(0, 0)"><path d="M243.4 0C240.3 26.8 237.1 53.6 223.5 72.6C209.9 91.7 185.7 103 173.1 125.8C160.6 148.6 159.6 182.8 143.1 196.9C126.5 211 94.4 204.8 68 209.2C41.5 213.6 20.8 228.5 0 243.4L0 0Z" fill="#cba6f7"></path></g></svg>